HIERARCHY
ROOT Hips
{
	OFFSET 0.000000 0.000000 0.000000
	CHANNELS 6 Xposition Yposition Zposition Zrotation Yrotation Xrotation 
	JOINT LHipJoint
	{
		OFFSET 0.000000 0.000000 0.000000
		CHANNELS 3 Zrotation Yrotation Xrotation
		JOINT LeftUpLeg
		{
			OFFSET 1.363060 -1.794630 0.839290
			CHANNELS 3 Zrotation Yrotation Xrotation
			JOINT LeftLeg
			{
				OFFSET 2.448110 -6.726130 0.000000
				CHANNELS 3 Zrotation Yrotation Xrotation
				JOINT LeftFoot
				{
					OFFSET 2.562200 -7.039590 0.000000
					CHANNELS 3 Zrotation Yrotation Xrotation
					JOINT LeftToeBase
					{
						OFFSET 0.157640 -0.433110 2.322550
						CHANNELS 3 Zrotation Yrotation Xrotation
						End Site
						{
							OFFSET 0.000000 0.000000 0.000000
						}
					}
				}
			}
		}
	}
	JOINT RHipJoint
	{
		OFFSET 0.000000 0.000000 0.000000
		CHANNELS 3 Zrotation Yrotation Xrotation
		JOINT RightUpLeg
		{
			OFFSET -1.305520 -1.794630 0.839290
			CHANNELS 3 Zrotation Yrotation Xrotation
			JOINT RightLeg
			{
				OFFSET -2.542530 -6.985550 0.000000
				CHANNELS 3 Zrotation Yrotation Xrotation
				JOINT RightFoot
				{
					OFFSET -2.568260 -7.056230 0.000000
					CHANNELS 3 Zrotation Yrotation Xrotation
					JOINT RightToeBase
					{
						OFFSET -0.164730 -0.452590 2.363150
						CHANNELS 3 Zrotation Yrotation Xrotation
						End Site
						{
							OFFSET 0.000000 0.000000 0.000000
						}
					}
				}
			}
		}
	}
	JOINT LowerBack
	{
		OFFSET 0.000000 0.000000 0.000000
		CHANNELS 3 Zrotation Yrotation Xrotation
		JOINT Spine
		{
			OFFSET 0.028270 2.035590 -0.193380
			CHANNELS 3 Zrotation Yrotation Xrotation
			JOINT Spine1
			{
				OFFSET 0.056720 2.048850 -0.042750
				CHANNELS 3 Zrotation Yrotation Xrotation
				JOINT Neck
				{
					OFFSET 0.000000 0.000000 0.000000
					CHANNELS 3 Zrotation Yrotation Xrotation
					JOINT Neck1
					{
						OFFSET -0.054170 1.746240 0.172020
						CHANNELS 3 Zrotation Yrotation Xrotation
						JOINT Head
						{
							OFFSET 0.104070 1.761360 -0.123970
							CHANNELS 3 Zrotation Yrotation Xrotation
							End Site
							{
								OFFSET 0.000000 0.000000 0.000000
							}
						}
					}
				}
				JOINT LeftShoulder
				{
					OFFSET 0.000000 0.000000 0.000000
					CHANNELS 3 Zrotation Yrotation Xrotation
					JOINT LeftArm
					{
						OFFSET 3.362410 1.200890 -0.311210
						CHANNELS 3 Zrotation Yrotation Xrotation
						JOINT LeftForeArm
						{
							OFFSET 4.983000 -0.000000 -0.000000
							CHANNELS 3 Zrotation Yrotation Xrotation
							JOINT LeftHand
							{
								OFFSET 3.483560 -0.000000 -0.000000
								CHANNELS 3 Zrotation Yrotation Xrotation
								JOINT LeftFingerBase
								{
									OFFSET 0.000000 0.000000 0.000000
									CHANNELS 3 Zrotation Yrotation Xrotation
									JOINT LeftHandIndex1
									{
										OFFSET 0.715260 -0.000000 -0.000000
										CHANNELS 3 Zrotation Yrotation Xrotation
										End Site
										{
											OFFSET 0.000000 0.000000 0.000000
										}
									}
								}
								JOINT LThumb
								{
									OFFSET 0.000000 0.000000 0.000000
									CHANNELS 3 Zrotation Yrotation Xrotation
									End Site
									{
										OFFSET 0.000000 0.000000 0.000000
									}
								}
							}
						}
					}
				}
				JOINT RightShoulder
				{
					OFFSET 0.000000 0.000000 0.000000
					CHANNELS 3 Zrotation Yrotation Xrotation
					JOINT RightArm
					{
						OFFSET -3.136600 1.374050 -0.404650
						CHANNELS 3 Zrotation Yrotation Xrotation
						JOINT RightForeArm
						{
							OFFSET -5.241900 -0.000000 -0.000000
							CHANNELS 3 Zrotation Yrotation Xrotation
							JOINT RightHand
							{
								OFFSET -3.444170 -0.000000 -0.000000
								CHANNELS 3 Zrotation Yrotation Xrotation
								JOINT RightFingerBase
								{
									OFFSET 0.000000 0.000000 0.000000
									CHANNELS 3 Zrotation Yrotation Xrotation
									JOINT RightHandIndex1
									{
										OFFSET -0.622530 -0.000000 -0.000000
										CHANNELS 3 Zrotation Yrotation Xrotation
										End Site
										{
											OFFSET 0.000000 0.000000 0.000000
										}
									}
								}
								JOINT RThumb
								{
									OFFSET 0.000000 0.000000 0.000000
									CHANNELS 3 Zrotation Yrotation Xrotation
									End Site
									{
										OFFSET 0.000000 0.000000 0.000000
									}
								}
							}
						}
					}
				}
			}
		}
	}
}
MOTION
Frames: 11
Frame Time: 0.008333
2.628609 17.397349 16.780702 -0.553141 -13.935376 19.497643 0.764328 -0.472940 0.482384 -23.015019 -22.616501 -11.782141 0.983280 11.375563 31.926767 -0.179427 4.316188 -8.856552 0.815400 -5.762200 -16.096000 -3.691363 1.432331 -0.800308 11.719598 23.918017 -59.609213 -2.859316 -16.288920 33.805970 5.251741 -33.766347 24.057315 -0.166300 -2.626900 7.241500 0.224556 -1.675435 -3.004828 0.885948 -2.268994 -6.649904 -1.675032 -1.592007 -5.025706 -1.368504 -1.839458 -15.366712 8.746393 -2.371040 16.998800 2.456700 -0.341700 15.211800 -9.328881 -10.623293 2.040508 -51.356382 -34.321514 -29.590228 18.729557 -21.912486 -5.286045 -2.327167 -1.958974 -33.453824 -21.861304 20.785813 -7.180900 -7.125000 0.000000 0.000000 -43.783700 46.659800 -2.220000 9.585391 11.928528 4.434964 42.717777 -6.385733 -72.686793 -5.507838 5.161683 -0.762784 0.154584 1.363694 66.422783 2.467732 15.082447 0.910300 7.125000 0.000000 0.000000 20.891800 -16.106600 15.343000 
2.661121 17.457743 16.658729 -0.665607 -14.505757 19.587970 0.648328 -0.471230 0.486756 -22.731551 -22.347737 -11.840175 0.728520 11.027724 30.866722 -0.634140 5.463955 -8.761229 1.049500 -6.514500 -18.284700 -3.653849 1.425766 -0.790769 10.941961 24.347679 -59.736974 -2.747614 -16.179674 33.399539 5.722622 -34.287460 22.732399 -0.344900 -3.773500 10.440300 0.229561 -1.771402 -2.919132 0.911126 -2.418901 -6.685308 -1.559008 -1.655490 -5.168853 -1.452569 -2.316262 -15.431341 8.598115 -3.091074 17.138333 2.343100 -0.648600 15.457300 -9.340595 -10.607760 2.013438 -52.541645 -33.253656 -30.678135 18.108015 -21.537804 -5.395221 -2.908050 -1.512501 -32.986224 -22.855544 26.791036 -9.233700 -7.125000 0.000000 0.000000 -48.479000 50.731600 -8.607900 9.567182 11.962661 4.391582 43.139162 -6.030826 -73.969971 -5.518236 5.092007 -0.746338 0.101679 1.362493 67.413887 1.588146 14.966207 0.696800 7.125000 0.000000 0.000000 20.352600 -16.135100 14.874800 
2.695570 17.496499 16.514795 -0.667770 -15.113013 19.685392 0.586747 -0.499947 0.465758 -22.515648 -21.772961 -12.352863 0.546109 10.802808 30.121522 -0.761714 5.751958 -8.448234 1.120200 -6.723200 -18.897900 -3.649233 1.410426 -0.775830 10.301093 24.577418 -60.047055 -2.665291 -16.095479 33.177171 6.457073 -34.821208 20.406917 -0.775700 -5.623500 15.695800 0.060887 -1.917083 -2.722645 0.932400 -2.634007 -6.697896 -1.306337 -1.739335 -5.232175 -1.856543 -2.925719 -15.571470 8.587611 -3.905167 17.159414 2.403600 -1.038900 15.639900 -9.346023 -10.596490 2.020837 -53.203460 -32.725429 -32.261939 17.401837 -20.568411 -4.751224 -2.482788 -1.675051 -30.938589 -21.537793 21.405514 -7.186800 -7.125000 0.000000 0.000000 -43.833400 47.026600 -2.707200 9.505078 12.002087 4.372189 43.741561 -5.484104 -70.613390 -5.394094 5.091363 -0.664839 -0.116002 1.246963 63.220258 0.199525 13.042734 0.298000 7.125000 0.000000 0.000000 19.607300 -17.767800 13.505300 
2.729051 17.539776 16.370322 -0.673591 -15.636413 19.767153 0.522029 -0.524278 0.437672 -22.325623 -21.489675 -12.696332 0.359834 10.559921 29.340493 -0.801897 5.839224 -8.286129 1.089700 -6.634200 -18.636100 -3.634290 1.402131 -0.782882 10.151178 24.364658 -60.288617 -2.588559 -16.013123 33.003334 6.649778 -34.565571 19.376133 -0.956600 -6.228100 17.447700 -0.102740 -2.103665 -2.533412 0.949708 -2.897904 -6.678366 -1.042086 -1.847279 -5.253950 -2.593579 -3.555857 -15.441796 8.924559 -4.630561 17.025441 2.798200 -1.438000 15.600200 -9.394088 -10.588582 2.057135 -53.799112 -32.250740 -33.496309 16.837946 -19.812060 -4.228827 -2.187157 -1.513423 -29.661681 -18.022839 18.977980 -5.255700 -7.125000 0.000000 0.000000 -39.755600 45.469600 -0.550900 9.423677 12.059699 4.333439 43.907272 -4.374740 -77.556567 -5.579366 4.926446 -0.684897 -0.035911 1.294220 70.216212 -0.452921 13.856600 0.181300 7.125000 0.000000 0.000000 19.128300 -16.935500 13.506500 
2.756826 17.587468 16.239198 -0.627548 -16.063792 19.823716 0.459004 -0.548084 0.417903 -22.245421 -21.536573 -12.827490 0.215915 10.353549 28.700191 -1.151917 6.747689 -8.540316 1.280800 -7.172000 -20.225900 -3.588012 1.436085 -0.836496 10.269579 23.837703 -60.324365 -2.592616 -15.990303 32.798809 6.301808 -34.918089 21.131306 -0.604400 -4.976300 13.841000 -0.328460 -2.309823 -2.474550 0.967053 -3.174416 -6.651436 -0.827329 -1.970129 -5.078760 -2.931289 -4.206513 -15.763872 9.036203 -5.517500 17.043431 2.928400 -1.830800 15.861000 -9.413682 -10.573288 2.055058 -54.377505 -31.919475 -34.727312 16.350462 -19.246551 -3.981042 -2.105212 -1.502068 -28.984827 -17.808881 17.829373 -4.922200 -7.125000 0.000000 0.000000 -38.998100 44.579300 0.482900 9.343366 12.121541 4.282943 44.279879 -3.354639 -82.451406 -5.738322 4.857049 -0.697348 -0.022480 1.325636 74.789804 -1.420719 14.243862 -0.032300 7.125000 0.000000 0.000000 18.484200 -16.469300 13.197300 
2.792567 17.627946 16.106998 -0.551141 -16.287015 19.670822 0.397647 -0.553354 0.408896 -22.260412 -21.634618 -12.763618 0.091975 10.156557 28.112922 -1.526621 7.674694 -8.517718 1.152500 -6.816400 -19.172600 -3.536101 1.461643 -0.897877 10.496953 23.036014 -60.097322 -2.606949 -15.970192 32.720120 5.706452 -34.506855 23.053161 -0.272700 -3.358700 9.279100 -0.399848 -2.545440 -2.137383 0.978684 -3.482852 -6.611154 -0.747616 -2.116922 -5.105994 -3.182786 -4.713517 -15.601812 9.047575 -6.232536 16.966150 2.959000 -2.162500 15.854300 -9.403226 -10.603457 2.017631 -54.541732 -31.968231 -37.891637 15.205782 -17.857285 -3.583059 -2.042674 -1.663342 -26.152848 -20.110643 15.168977 -5.005100 -7.125000 0.000000 0.000000 -39.441600 42.362400 3.115900 9.284741 12.181690 4.256854 44.600606 -2.436082 -87.903343 -5.961611 4.828175 -0.706437 -0.010448 1.339456 79.741500 -2.437419 14.360884 -0.273000 7.125000 0.000000 0.000000 17.820000 -16.232500 12.767800 
2.807101 17.644848 15.955205 -0.144602 -17.080302 19.440934 0.368324 -0.589210 0.367114 -22.567185 -21.361913 -13.082650 -0.019889 10.014913 27.625755 -1.659487 7.982462 -8.308946 0.989900 -6.332600 -17.752500 -3.537371 1.441426 -0.840277 8.907208 24.293611 -60.024104 -2.643261 -16.040095 32.814850 6.648100 -35.802885 20.640914 -0.505300 -4.557000 12.649100 -1.293787 -2.612157 -1.669146 0.974661 -3.607886 -6.599061 -0.296260 -2.109463 -5.261563 -3.547655 -5.348283 -15.408666 9.109443 -7.091153 16.835333 2.990500 -2.555400 15.819600 -9.452384 -10.543744 2.127977 -56.858883 -30.488917 -34.083253 16.258520 -19.377453 -4.009437 -2.269080 -1.365644 -29.563147 -17.982997 19.368108 -5.297800 -7.125000 0.000000 0.000000 -39.856400 45.654700 -0.769900 9.246634 12.239319 4.193476 44.760374 -1.393856 -97.128359 -6.509967 5.025571 -0.748309 0.070376 1.366693 88.543818 -3.609798 14.667446 -0.565800 7.125000 0.000000 0.000000 17.042800 -15.777800 12.331500 
2.838536 17.673161 15.835600 -0.112503 -17.559393 19.410096 0.327779 -0.615797 0.354564 -22.559521 -21.341175 -13.271600 -0.114445 9.887309 27.224675 -1.533653 7.678971 -8.396649 0.647100 -5.146100 -14.325700 -3.520031 1.454456 -0.859475 9.219230 23.705345 -59.991516 -2.710381 -16.094889 32.938634 6.113930 -35.552180 22.453280 -0.262400 -3.295400 9.102200 -1.444985 -2.754089 -1.561230 1.015092 -3.822857 -6.608781 0.017637 -2.187445 -5.470264 -4.157890 -5.893469 -14.849092 9.223246 -7.767740 16.718550 3.167300 -2.937200 15.669900 -9.448819 -10.563248 2.118491 -57.767542 -30.248942 -35.835927 15.677341 -18.685378 -3.760263 -2.337967 -1.103328 -28.270720 -16.547326 20.235110 -4.952200 -7.125000 0.000000 0.000000 -39.151800 46.356600 -1.549800 9.212691 12.275164 4.172320 44.746201 -0.613951 -104.852741 -6.995190 5.272659 -0.804704 0.152802 1.408311 95.939781 -4.750726 15.195732 -0.876800 7.125000 0.000000 0.000000 16.281900 -15.124500 11.970600 
2.869863 17.693831 15.703615 -0.009634 -18.155556 19.277486 0.307712 -0.645850 0.340049 -22.697753 -21.072559 -13.546172 -0.177309 9.810386 26.962575 -1.564145 7.766373 -8.486491 0.475100 -4.420500 -12.262900 -3.513230 1.460967 -0.854111 9.067172 23.657919 -59.913942 -2.775462 -16.168591 33.116338 5.832582 -35.416339 23.355698 -0.124600 -2.275100 6.266500 -1.759606 -2.929092 -1.170547 1.050126 -4.087720 -6.617818 0.397515 -2.280602 -5.765836 -4.755559 -6.402076 -14.397697 9.405454 -8.397366 16.650300 3.398800 -3.291300 15.632100 -9.452015 -10.589213 2.090590 -58.467420 -29.910652 -38.094814 15.000087 -17.853369 -3.503605 -2.379423 -0.944924 -25.799050 -16.488885 20.114032 -4.899000 -7.125000 0.000000 0.000000 -39.017600 46.215500 -1.383200 9.165395 12.342235 4.164068 44.991932 0.155596 -108.656700 -7.216444 5.407513 -0.842046 0.194901 1.451598 99.564117 -5.571224 15.563038 -1.110600 7.125000 0.000000 0.000000 15.747700 -14.675100 11.702800 
2.901837 17.714608 15.567970 0.059945 -18.762677 18.978015 0.294103 -0.667338 0.324753 -22.841342 -20.671351 -13.800212 -0.210742 9.768404 26.802993 -1.855231 8.490486 -8.488679 0.577700 -4.867300 -13.530400 -3.509207 1.452420 -0.820317 8.661409 24.068560 -59.545389 -2.830493 -16.222806 33.314713 6.169497 -35.729709 22.425358 -0.171000 -2.664300 7.345400 -2.034648 -3.113786 -0.531331 1.082200 -4.366514 -6.616610 0.739892 -2.380993 -6.124068 -5.207090 -6.892606 -14.061755 9.497816 -9.056103 16.656184 3.531400 -3.630900 15.715500 -9.426954 -10.637376 1.995778 -58.897144 -29.620101 -43.580365 13.534644 -15.923625 -3.001069 -2.285517 -1.210739 -17.531638 -21.105958 14.572207 -5.078600 -7.125000 0.000000 0.000000 -39.789900 41.636400 4.041700 9.116446 12.444420 4.167016 45.364422 0.969284 -111.620028 -7.408720 5.536456 -0.866505 0.178829 1.490165 102.228755 -6.610496 15.435651 -1.382400 7.125000 0.000000 0.000000 15.086300 -14.651200 11.181100 
2.933918 17.735601 15.439215 -0.012459 -19.354177 18.743499 0.284911 -0.698008 0.303791 -22.798472 -20.305380 -14.157933 -0.219589 9.771363 26.766021 -2.024993 8.913309 -8.475201 0.588800 -4.912800 -13.659900 -3.511664 1.441653 -0.792371 8.705116 24.190575 -59.120380 -2.853644 -16.223913 33.444187 6.528024 -35.871617 21.278758 -0.309900 -3.578600 9.894100 -2.137661 -3.231773 -0.006409 1.126384 -4.555463 -6.608374 1.036378 -2.435653 -6.387045 -5.683682 -7.403023 -13.680935 9.549086 -9.738596 16.633964 3.633900 -3.990600 15.746300 -9.435167 -10.637415 2.046830 -60.396541 -29.009940 -41.558491 14.180747 -16.794367 -3.139568 -2.351845 -0.748371 -21.333338 -16.613184 18.831542 -4.674300 -7.125000 0.000000 0.000000 -38.430600 45.140600 -0.157600 9.086409 12.503883 4.135975 45.561167 1.813791 -116.226223 -7.774822 5.825045 -0.916333 0.172571 1.540325 106.026369 -7.881236 15.333951 -1.722200 7.125000 0.000000 0.000000 14.268900 -14.556800 10.563100 
